# xmcd
#
# Track frame offsets: 
#        150
#        20218
#        42597
#        63401
#        68053
#        82541
#        93975
#        114000
#        120079
#        142021
#        164245
#        166440
#        187725
#        192934
#        213826
#        229767
#
# Disc length: 3361 seconds
#
# Revision: 1
# Processed by: cddbd v1.5.2PL0 Copyright (c) Steve Scherf et al.
# Submitted via: ExactAudioCopy v0.99pb5
#
DISCID=d00d1f10
DTITLE=Cut Copy - In Ghost Colours
DYEAR=2008
DGENRE=Electropop
TTITLE0=Feel The Love
TTITLE1=Out There On The Ice
TTITLE2=Lights And Music
TTITLE3=We Fight For Diamonds
TTITLE4=Unforgettable Season
TTITLE5=Midnight Runner
TTITLE6=So Haunted
TTITLE7=Voices In Quartz
TTITLE8=Hearts On Fire
TTITLE9=Far Away
TTITLE10=Silver Thoughts
TTITLE11=Strangers In The Wind
TTITLE12=Visions
TTITLE13=Nobody Lost, Nobody Found
TTITLE14=Eternity One Night Only
TTITLE15=Cold Youth
EXTD=YEAR: 2008
EXTT0=
EXTT1=
EXTT2=
EXTT3=
EXTT4=
EXTT5=
EXTT6=
EXTT7=
EXTT8=
EXTT9=
EXTT10=
EXTT11=
EXTT12=
EXTT13=
EXTT14=
EXTT15=
PLAYORDER=
